<?xml version="1.0" encoding="utf-8"?>
<!-- Generator: Adobe Illustrator 27.2.0, SVG Export Plug-In . SVG Version: 6.00 Build 0)  -->
<svg version="1.1" id="Layer_1" xmlns="http://www.w3.org/2000/svg" xmlns:xlink="http://www.w3.org/1999/xlink" x="0px" y="0px"
	 viewBox="0 0 500 500" style="enable-background:new 0 0 500 500;" xml:space="preserve">
<style type="text/css">
	.st0{fill:#FFFFFF;}
</style>
<path class="st0" d="M134,233.7c0,31.9-15.9,37-37.9,37c-22.1,0-37.9-5.1-37.9-37c0-31.9,15.9-38.9,37.9-38.9
	C118.1,194.8,134,201.8,134,233.7z M117.8,233.7c0-23.1-9-23.6-21.8-23.6c-12.9,0-21.8,0.6-21.8,23.6s8.8,21.9,21.8,21.9
	C108.8,255.6,117.8,256.7,117.8,233.7z M183,242.3h-14.3c-2.4,0-4.4,2-4.4,4.4v77.4c0,2.4-2,4.4-4.4,4.4h-8.1c-2.4,0-4.4-2-4.4-4.4
	V154.8c0-2.4,2-4.4,4.4-4.4h8.1c2.4,0,4.4,2,4.4,4.4v69.3c0,2.4,2,4.4,4.4,4.4H183c2.4,0,4.4,2,4.4,4.4v5.2
	C187.4,240.4,185.4,242.3,183,242.3z"/>
<path class="st0" d="M320.4,242.5h-50.3c-2.4,0-4.4,2-4.4,4.4l0.1,77.2c0,2.4-2,4.4-4.4,4.4h-8.1c-2.4,0-4.4-2-4.4-4.4l-0.1-77.2
	c0-2.4-2-4.4-4.4-4.4h-49.3c-2.4,0-4.4-2-4.4-4.4V233c0-2.4,2-4.4,4.4-4.4h125.2c2.4,0,4.4,2,4.4,4.4v5.2
	C324.7,240.5,322.8,242.5,320.4,242.5z M217.8,183.2c0-20,8.5-32.8,39.7-32.8c31.1,0,39.3,12.8,39.3,32.8c0,20.1-8.3,32.8-39.3,32.8
	C226.3,216,217.8,203.3,217.8,183.2z M235.2,183.2c0,12.1,1.1,19.2,22.4,19.2c21.1,0,22-7.1,22-19.2c0-11.9-0.9-19.2-22-19.2
	C236.3,164,235.2,171.3,235.2,183.2z"/>
<path class="st0" d="M350.1,314.5c19.9-0.3,38-1.3,57.9-4.3c2.6-0.4,4.9,1.4,5.3,3.9l0.6,4.7c0.3,2.5-1.4,4.8-3.8,5.2
	c-23.5,3.8-44.5,4.5-69,4.5h-8c-2.5,0-4.6-2.1-4.6-4.6v-49.3c0-2.5,2.1-4.6,4.6-4.6h42.3c2.5,0,4.6-2.1,4.6-4.6V247
	c0-2.5-2.1-4.6-4.6-4.6h-42.6c-2.5,0-4.6-2.1-4.6-4.6v-4.5c0-2.5,2.1-4.6,4.6-4.6h59.6c2.5,0,4.6,2.1,4.6,4.6v45.6
	c0,2.5-2.1,4.6-4.6,4.6H350c-2.5,0-4.6,2.1-4.6,4.6l0,21.8C345.4,312.5,347.5,314.5,350.1,314.5z M441.9,155v168.8
	c0,2.5-2.1,4.6-4.6,4.6h-7.8c-2.5,0-4.6-2.1-4.6-4.6V155c0-2.5,2.1-4.6,4.6-4.6h7.8C439.8,150.4,441.9,152.5,441.9,155z"/>
</svg>
